<?xml version="1.0" encoding="UTF-8" standalone="no"?>
<!DOCTYPE svg PUBLIC "-//W3C//DTD SVG 1.0//EN"
 "http://www.w3.org/TR/2001/REC-SVG-20010904/DTD/svg10.dtd" [
 <!ATTLIST svg xmlns:xlink CDATA #FIXED "http://www.w3.org/1999/xlink">
]>
<!-- Generated by Graphviz version 2.20.2 (Tue Mar &#160;2 21:46:26 UTC 2010)
     For user: (robert) robert,,, -->
<!-- Title: models_diagram Pages: 1 -->
<svg width="1086pt" height="946pt"
 viewBox="0.00 0.00 1086.00 946.00" xmlns="http://www.w3.org/2000/svg" xmlns:xlink="http://www.w3.org/1999/xlink">
<g id="graph0" class="graph" transform="scale(1 1) rotate(0) translate(4 942)">
<title>models_diagram</title>
<polygon style="fill:white;stroke:white;" points="-4,4 -4,-942 1082,-942 1082,4 -4,4"/>
<!-- FamilyUpdate -->
<g id="node1" class="node"><title>FamilyUpdate</title>
<polyline style="fill:none;stroke:black;" points="12,-34 153,-34 "/>
<path style="fill:none;stroke:black;" d="M153,-34C159,-34 165,-40 165,-46"/>
<polyline style="fill:none;stroke:black;" points="165,-46 165,-123 "/>
<path style="fill:none;stroke:black;" d="M165,-123C165,-129 159,-135 153,-135"/>
<polyline style="fill:none;stroke:black;" points="153,-135 12,-135 "/>
<path style="fill:none;stroke:black;" d="M12,-135C6,-135 0,-129 0,-123"/>
<polyline style="fill:none;stroke:black;" points="0,-123 0,-46 "/>
<path style="fill:none;stroke:black;" d="M0,-46C0,-40 6,-34 12,-34"/>
<text text-anchor="middle" x="82" y="-117.9" style="font-family:Times New Roman;font-size:14.00;">FamilyUpdate</text>
<polyline style="fill:none;stroke:black;" points="0,-110 165,-110 "/>
<text text-anchor="start" x="7.5" y="-93.4" style="font-family:Times New Roman;font-size:14.00;">notes :text</text>
<text text-anchor="start" x="7.5" y="-76.4" style="font-family:Times New Roman;font-size:14.00;">update_dt :date</text>
<text text-anchor="start" x="7.5" y="-59.4" style="font-family:Times New Roman;font-size:14.00;">created_at :datetime</text>
<text text-anchor="start" x="7.5" y="-42.4" style="font-family:Times New Roman;font-size:14.00;">updated_at :datetime</text>
</g>
<!-- Child -->
<g id="node2" class="node"><title>Child</title>
<polyline style="fill:none;stroke:black;" points="679,-412 839,-412 "/>
<path style="fill:none;stroke:black;" d="M839,-412C845,-412 851,-418 851,-424"/>
<polyline style="fill:none;stroke:black;" points="851,-424 851,-926 "/>
<path style="fill:none;stroke:black;" d="M851,-926C851,-932 845,-938 839,-938"/>
<polyline style="fill:none;stroke:black;" points="839,-938 679,-938 "/>
<path style="fill:none;stroke:black;" d="M679,-938C673,-938 667,-932 667,-926"/>
<polyline style="fill:none;stroke:black;" points="667,-926 667,-424 "/>
<path style="fill:none;stroke:black;" d="M667,-424C667,-418 673,-412 679,-412"/>
<text text-anchor="middle" x="759" y="-920.9" style="font-family:Times New Roman;font-size:14.00;">Child</text>
<polyline style="fill:none;stroke:black;" points="667,-913 851,-913 "/>
<text text-anchor="start" x="675" y="-895.9" style="font-family:Times New Roman;font-size:14.00;">first :string</text>
<text text-anchor="start" x="675" y="-878.9" style="font-family:Times New Roman;font-size:14.00;">last :string</text>
<text text-anchor="start" x="675" y="-861.9" style="font-family:Times New Roman;font-size:14.00;">middle :string</text>
<text text-anchor="start" x="675" y="-844.9" style="font-family:Times New Roman;font-size:14.00;">gender :string</text>
<text text-anchor="start" x="675" y="-827.9" style="font-family:Times New Roman;font-size:14.00;">classroom :string</text>
<text text-anchor="start" x="675" y="-810.9" style="font-family:Times New Roman;font-size:14.00;">village :string</text>
<text text-anchor="start" x="675" y="-793.9" style="font-family:Times New Roman;font-size:14.00;">teacher :string</text>
<text text-anchor="start" x="675" y="-776.9" style="font-family:Times New Roman;font-size:14.00;">sponsor_code :string</text>
<text text-anchor="start" x="675" y="-759.9" style="font-family:Times New Roman;font-size:14.00;">father :string</text>
<text text-anchor="start" x="675" y="-742.9" style="font-family:Times New Roman;font-size:14.00;">mother :string</text>
<text text-anchor="start" x="675" y="-725.9" style="font-family:Times New Roman;font-size:14.00;">lives_with :string</text>
<text text-anchor="start" x="675" y="-708.9" style="font-family:Times New Roman;font-size:14.00;">academic :string</text>
<text text-anchor="start" x="675" y="-691.9" style="font-family:Times New Roman;font-size:14.00;">attendance :string</text>
<text text-anchor="start" x="675" y="-674.9" style="font-family:Times New Roman;font-size:14.00;">does_homework :string</text>
<text text-anchor="start" x="675" y="-657.9" style="font-family:Times New Roman;font-size:14.00;">favorite_season :string</text>
<text text-anchor="start" x="675" y="-640.9" style="font-family:Times New Roman;font-size:14.00;">age :integer</text>
<text text-anchor="start" x="675" y="-623.9" style="font-family:Times New Roman;font-size:14.00;">grade :integer</text>
<text text-anchor="start" x="675" y="-606.9" style="font-family:Times New Roman;font-size:14.00;">sisters :integer</text>
<text text-anchor="start" x="675" y="-589.9" style="font-family:Times New Roman;font-size:14.00;">brothers :integer</text>
<text text-anchor="start" x="675" y="-572.9" style="font-family:Times New Roman;font-size:14.00;">cousins :integer</text>
<text text-anchor="start" x="675" y="-555.9" style="font-family:Times New Roman;font-size:14.00;">birthdate :date</text>
<text text-anchor="start" x="675" y="-538.9" style="font-family:Times New Roman;font-size:14.00;">sponsor_begin :date</text>
<text text-anchor="start" x="675" y="-521.9" style="font-family:Times New Roman;font-size:14.00;">sponsor_expire :date</text>
<text text-anchor="start" x="675" y="-504.9" style="font-family:Times New Roman;font-size:14.00;">occupation :text</text>
<text text-anchor="start" x="675" y="-487.9" style="font-family:Times New Roman;font-size:14.00;">helps_with :text</text>
<text text-anchor="start" x="675" y="-470.9" style="font-family:Times New Roman;font-size:14.00;">activities :text</text>
<text text-anchor="start" x="675" y="-453.9" style="font-family:Times New Roman;font-size:14.00;">favorite_bibleverse :text</text>
<text text-anchor="start" x="675" y="-436.9" style="font-family:Times New Roman;font-size:14.00;">created_at :datetime</text>
<text text-anchor="start" x="675" y="-419.9" style="font-family:Times New Roman;font-size:14.00;">updated_at :datetime</text>
</g>
<!-- Family -->
<g id="node3" class="node"><title>Family</title>
<polyline style="fill:none;stroke:black;" points="199,-232 340,-232 "/>
<path style="fill:none;stroke:black;" d="M340,-232C346,-232 352,-238 352,-244"/>
<polyline style="fill:none;stroke:black;" points="352,-244 352,-338 "/>
<path style="fill:none;stroke:black;" d="M352,-338C352,-344 346,-350 340,-350"/>
<polyline style="fill:none;stroke:black;" points="340,-350 199,-350 "/>
<path style="fill:none;stroke:black;" d="M199,-350C193,-350 187,-344 187,-338"/>
<polyline style="fill:none;stroke:black;" points="187,-338 187,-244 "/>
<path style="fill:none;stroke:black;" d="M187,-244C187,-238 193,-232 199,-232"/>
<text text-anchor="middle" x="269" y="-332.9" style="font-family:Times New Roman;font-size:14.00;">Family</text>
<polyline style="fill:none;stroke:black;" points="187,-325 352,-325 "/>
<text text-anchor="start" x="194.5" y="-307.9" style="font-family:Times New Roman;font-size:14.00;">name :string</text>
<text text-anchor="start" x="194.5" y="-290.9" style="font-family:Times New Roman;font-size:14.00;">sponsor_begin :date</text>
<text text-anchor="start" x="194.5" y="-273.9" style="font-family:Times New Roman;font-size:14.00;">sponsor_expire :date</text>
<text text-anchor="start" x="194.5" y="-256.9" style="font-family:Times New Roman;font-size:14.00;">created_at :datetime</text>
<text text-anchor="start" x="194.5" y="-239.9" style="font-family:Times New Roman;font-size:14.00;">updated_at :datetime</text>
</g>
<!-- Child&#45;&gt;Family -->
<g id="edge8" class="edge"><title>Child&#45;&gt;Family</title>
<path style="fill:none;stroke:black;" d="M659,-604C576,-545 458,-458 360,-376 353,-370 346,-364 339,-357"/>
<polygon style="fill:black;stroke:black;" points="659,-604 664.3,-613.6 663,-607 667,-610 667,-610 667,-610 663,-607 669.7,-606.4 659,-604 659,-604"/>
<polygon style="fill:black;stroke:black;" points="338.526,-356.585 333.963,-346.613 334.763,-353.293 331,-350 331,-350 331,-350 334.763,-353.293 328.037,-353.387 338.526,-356.585 338.526,-356.585"/>
</g>
<!-- ChildImage -->
<g id="node4" class="node"><title>ChildImage</title>
<polyline style="fill:none;stroke:black;" points="381,-206 609,-206 "/>
<path style="fill:none;stroke:black;" d="M609,-206C615,-206 621,-212 621,-218"/>
<polyline style="fill:none;stroke:black;" points="621,-218 621,-363 "/>
<path style="fill:none;stroke:black;" d="M621,-363C621,-369 615,-375 609,-375"/>
<polyline style="fill:none;stroke:black;" points="609,-375 381,-375 "/>
<path style="fill:none;stroke:black;" d="M381,-375C375,-375 369,-369 369,-363"/>
<polyline style="fill:none;stroke:black;" points="369,-363 369,-218 "/>
<path style="fill:none;stroke:black;" d="M369,-218C369,-212 375,-206 381,-206"/>
<text text-anchor="middle" x="495" y="-357.9" style="font-family:Times New Roman;font-size:14.00;">ChildImage</text>
<polyline style="fill:none;stroke:black;" points="369,-350 621,-350 "/>
<text text-anchor="start" x="377" y="-333.4" style="font-family:Times New Roman;font-size:14.00;">notes :text</text>
<text text-anchor="start" x="377" y="-316.4" style="font-family:Times New Roman;font-size:14.00;">created_at :datetime</text>
<text text-anchor="start" x="377" y="-299.4" style="font-family:Times New Roman;font-size:14.00;">updated_at :datetime</text>
<text text-anchor="start" x="377" y="-282.4" style="font-family:Times New Roman;font-size:14.00;">photograph_file_name :string</text>
<text text-anchor="start" x="377" y="-265.4" style="font-family:Times New Roman;font-size:14.00;">photograph_content_type :string</text>
<text text-anchor="start" x="377" y="-248.4" style="font-family:Times New Roman;font-size:14.00;">photograph_file_size :integer</text>
<text text-anchor="start" x="377" y="-231.4" style="font-family:Times New Roman;font-size:14.00;">photograph_updated_at :datetime</text>
<text text-anchor="start" x="377" y="-214.4" style="font-family:Times New Roman;font-size:14.00;">photograph_primary :integer</text>
</g>
<!-- Child&#45;&gt;ChildImage -->
<g id="edge10" class="edge"><title>Child&#45;&gt;ChildImage</title>
<path style="fill:none;stroke:black;" d="M661,-533C627,-482 589,-427 558,-382"/>
<polygon style="fill:black;stroke:black;" points="661,-533 663.4,-543.7 664,-537 667,-541 667,-541 667,-541 664,-537 670.6,-538.3 661,-533 661,-533"/>
<ellipse style="fill:black;stroke:black;" cx="555.325" cy="-378.255" rx="4.00002" ry="4.00002"/>
</g>
<!-- Teacher -->
<g id="node5" class="node"><title>Teacher</title>
<polyline style="fill:none;stroke:black;" points="871,-206 1012,-206 "/>
<path style="fill:none;stroke:black;" d="M1012,-206C1018,-206 1024,-212 1024,-218"/>
<polyline style="fill:none;stroke:black;" points="1024,-218 1024,-363 "/>
<path style="fill:none;stroke:black;" d="M1024,-363C1024,-369 1018,-375 1012,-375"/>
<polyline style="fill:none;stroke:black;" points="1012,-375 871,-375 "/>
<path style="fill:none;stroke:black;" d="M871,-375C865,-375 859,-369 859,-363"/>
<polyline style="fill:none;stroke:black;" points="859,-363 859,-218 "/>
<path style="fill:none;stroke:black;" d="M859,-218C859,-212 865,-206 871,-206"/>
<text text-anchor="middle" x="941" y="-357.9" style="font-family:Times New Roman;font-size:14.00;">Teacher</text>
<polyline style="fill:none;stroke:black;" points="859,-350 1024,-350 "/>
<text text-anchor="start" x="866.5" y="-333.4" style="font-family:Times New Roman;font-size:14.00;">first :string</text>
<text text-anchor="start" x="866.5" y="-316.4" style="font-family:Times New Roman;font-size:14.00;">last :string</text>
<text text-anchor="start" x="866.5" y="-299.4" style="font-family:Times New Roman;font-size:14.00;">gender :string</text>
<text text-anchor="start" x="866.5" y="-282.4" style="font-family:Times New Roman;font-size:14.00;">village :string</text>
<text text-anchor="start" x="866.5" y="-265.4" style="font-family:Times New Roman;font-size:14.00;">grade :integer</text>
<text text-anchor="start" x="866.5" y="-248.4" style="font-family:Times New Roman;font-size:14.00;">school :string</text>
<text text-anchor="start" x="866.5" y="-231.4" style="font-family:Times New Roman;font-size:14.00;">created_at :datetime</text>
<text text-anchor="start" x="866.5" y="-214.4" style="font-family:Times New Roman;font-size:14.00;">updated_at :datetime</text>
</g>
<!-- Child&#45;&gt;Teacher -->
<g id="edge6" class="edge"><title>Child&#45;&gt;Teacher</title>
<path style="fill:none;stroke:black;" d="M855,-459C867,-432 880,-406 891,-382"/>
<ellipse style="fill:none;stroke:black;" cx="852.985" cy="-462.527" rx="4.00002" ry="4.00002"/>
<ellipse style="fill:black;stroke:black;" cx="893.015" cy="-378.473" rx="4.00002" ry="4.00002"/>
</g>
<!-- ChildUpdate -->
<g id="node6" class="node"><title>ChildUpdate</title>
<polyline style="fill:none;stroke:black;" points="689,-240 830,-240 "/>
<path style="fill:none;stroke:black;" d="M830,-240C836,-240 842,-246 842,-252"/>
<polyline style="fill:none;stroke:black;" points="842,-252 842,-329 "/>
<path style="fill:none;stroke:black;" d="M842,-329C842,-335 836,-341 830,-341"/>
<polyline style="fill:none;stroke:black;" points="830,-341 689,-341 "/>
<path style="fill:none;stroke:black;" d="M689,-341C683,-341 677,-335 677,-329"/>
<polyline style="fill:none;stroke:black;" points="677,-329 677,-252 "/>
<path style="fill:none;stroke:black;" d="M677,-252C677,-246 683,-240 689,-240"/>
<text text-anchor="middle" x="759" y="-323.9" style="font-family:Times New Roman;font-size:14.00;">ChildUpdate</text>
<polyline style="fill:none;stroke:black;" points="677,-316 842,-316 "/>
<text text-anchor="start" x="684.5" y="-299.4" style="font-family:Times New Roman;font-size:14.00;">notes :text</text>
<text text-anchor="start" x="684.5" y="-282.4" style="font-family:Times New Roman;font-size:14.00;">update_dt :date</text>
<text text-anchor="start" x="684.5" y="-265.4" style="font-family:Times New Roman;font-size:14.00;">created_at :datetime</text>
<text text-anchor="start" x="684.5" y="-248.4" style="font-family:Times New Roman;font-size:14.00;">updated_at :datetime</text>
</g>
<!-- Child&#45;&gt;ChildUpdate -->
<g id="edge12" class="edge"><title>Child&#45;&gt;ChildUpdate</title>
<path style="fill:none;stroke:black;" d="M759,-402C759,-383 759,-365 759,-349"/>
<polygon style="fill:black;stroke:black;" points="759,-402 754.5,-412 759,-407 759,-412 759,-412 759,-412 759,-407 763.5,-412 759,-402 759,-402"/>
<ellipse style="fill:black;stroke:black;" cx="759" cy="-345" rx="4" ry="4"/>
</g>
<!-- FamilyChild -->
<g id="node8" class="node"><title>FamilyChild</title>
<polyline style="fill:none;stroke:black;" points="541,-43 682,-43 "/>
<path style="fill:none;stroke:black;" d="M682,-43C688,-43 694,-49 694,-55"/>
<polyline style="fill:none;stroke:black;" points="694,-55 694,-115 "/>
<path style="fill:none;stroke:black;" d="M694,-115C694,-121 688,-127 682,-127"/>
<polyline style="fill:none;stroke:black;" points="682,-127 541,-127 "/>
<path style="fill:none;stroke:black;" d="M541,-127C535,-127 529,-121 529,-115"/>
<polyline style="fill:none;stroke:black;" points="529,-115 529,-55 "/>
<path style="fill:none;stroke:black;" d="M529,-55C529,-49 535,-43 541,-43"/>
<text text-anchor="middle" x="611" y="-109.9" style="font-family:Times New Roman;font-size:14.00;">FamilyChild</text>
<polyline style="fill:none;stroke:black;" points="529,-102 694,-102 "/>
<text text-anchor="start" x="536.5" y="-84.9" style="font-family:Times New Roman;font-size:14.00;">update_dt :date</text>
<text text-anchor="start" x="536.5" y="-67.9" style="font-family:Times New Roman;font-size:14.00;">created_at :datetime</text>
<text text-anchor="start" x="536.5" y="-50.9" style="font-family:Times New Roman;font-size:14.00;">updated_at :datetime</text>
</g>
<!-- Child&#45;&gt;FamilyChild -->
<g id="edge2" class="edge"><title>Child&#45;&gt;FamilyChild</title>
<path style="fill:none;stroke:black;" d="M675,-402C672,-393 670,-385 668,-376 647,-292 629,-193 619,-135"/>
<polygon style="fill:black;stroke:black;" points="675.039,-402.194 672.587,-412.883 676.019,-407.097 677,-412 677,-412 677,-412 676.019,-407.097 681.413,-411.117 675.039,-402.194 675.039,-402.194"/>
<ellipse style="fill:black;stroke:black;" cx="618.496" cy="-130.969" rx="4.00001" ry="4.00001"/>
</g>
<!-- ChildTeacher -->
<g id="node9" class="node"><title>ChildTeacher</title>
<polyline style="fill:none;stroke:black;" points="926,-26 1067,-26 "/>
<path style="fill:none;stroke:black;" d="M1067,-26C1073,-26 1079,-32 1079,-38"/>
<polyline style="fill:none;stroke:black;" points="1079,-38 1079,-132 "/>
<path style="fill:none;stroke:black;" d="M1079,-132C1079,-138 1073,-144 1067,-144"/>
<polyline style="fill:none;stroke:black;" points="1067,-144 926,-144 "/>
<path style="fill:none;stroke:black;" d="M926,-144C920,-144 914,-138 914,-132"/>
<polyline style="fill:none;stroke:black;" points="914,-132 914,-38 "/>
<path style="fill:none;stroke:black;" d="M914,-38C914,-32 920,-26 926,-26"/>
<text text-anchor="middle" x="996" y="-126.9" style="font-family:Times New Roman;font-size:14.00;">ChildTeacher</text>
<polyline style="fill:none;stroke:black;" points="914,-119 1079,-119 "/>
<text text-anchor="start" x="921.5" y="-101.9" style="font-family:Times New Roman;font-size:14.00;">valid_from :date</text>
<text text-anchor="start" x="921.5" y="-84.9" style="font-family:Times New Roman;font-size:14.00;">valid_until :date</text>
<text text-anchor="start" x="921.5" y="-67.9" style="font-family:Times New Roman;font-size:14.00;">notes :text</text>
<text text-anchor="start" x="921.5" y="-50.9" style="font-family:Times New Roman;font-size:14.00;">created_at :datetime</text>
<text text-anchor="start" x="921.5" y="-33.9" style="font-family:Times New Roman;font-size:14.00;">updated_at :datetime</text>
</g>
<!-- Child&#45;&gt;ChildTeacher -->
<g id="edge4" class="edge"><title>Child&#45;&gt;ChildTeacher</title>
<path style="fill:none;stroke:black;" d="M859,-598C921,-544 997,-465 1032,-376 1061,-302 1042,-212 1022,-152"/>
<polygon style="fill:black;stroke:black;" points="858.526,-598.415 848.037,-601.613 854.763,-601.707 851,-605 851,-605 851,-605 854.763,-601.707 853.963,-608.387 858.526,-598.415 858.526,-598.415"/>
<ellipse style="fill:black;stroke:black;" cx="1020.4" cy="-147.745" rx="4.00001" ry="4.00001"/>
</g>
<!-- Family&#45;&gt;FamilyUpdate -->
<g id="edge18" class="edge"><title>Family&#45;&gt;FamilyUpdate</title>
<path style="fill:none;stroke:black;" d="M208,-224C184,-197 156,-167 133,-141"/>
<polygon style="fill:black;stroke:black;" points="208.415,-224.474 211.613,-234.963 211.707,-228.237 215,-232 215,-232 215,-232 211.707,-228.237 218.387,-229.037 208.415,-224.474 208.415,-224.474"/>
<ellipse style="fill:black;stroke:black;" cx="130.561" cy="-138.073" rx="4.00002" ry="4.00002"/>
</g>
<!-- FamilyImage -->
<g id="node7" class="node"><title>FamilyImage</title>
<polyline style="fill:none;stroke:black;" points="194,-0 422,-0 "/>
<path style="fill:none;stroke:black;" d="M422,-0C428,-0 434,-6 434,-12"/>
<polyline style="fill:none;stroke:black;" points="434,-12 434,-157 "/>
<path style="fill:none;stroke:black;" d="M434,-157C434,-163 428,-169 422,-169"/>
<polyline style="fill:none;stroke:black;" points="422,-169 194,-169 "/>
<path style="fill:none;stroke:black;" d="M194,-169C188,-169 182,-163 182,-157"/>
<polyline style="fill:none;stroke:black;" points="182,-157 182,-12 "/>
<path style="fill:none;stroke:black;" d="M182,-12C182,-6 188,-0 194,-0"/>
<text text-anchor="middle" x="308" y="-151.9" style="font-family:Times New Roman;font-size:14.00;">FamilyImage</text>
<polyline style="fill:none;stroke:black;" points="182,-144 434,-144 "/>
<text text-anchor="start" x="190" y="-127.4" style="font-family:Times New Roman;font-size:14.00;">notes :text</text>
<text text-anchor="start" x="190" y="-110.4" style="font-family:Times New Roman;font-size:14.00;">created_at :datetime</text>
<text text-anchor="start" x="190" y="-93.4" style="font-family:Times New Roman;font-size:14.00;">updated_at :datetime</text>
<text text-anchor="start" x="190" y="-76.4" style="font-family:Times New Roman;font-size:14.00;">photograph_file_name :string</text>
<text text-anchor="start" x="190" y="-59.4" style="font-family:Times New Roman;font-size:14.00;">photograph_content_type :string</text>
<text text-anchor="start" x="190" y="-42.4" style="font-family:Times New Roman;font-size:14.00;">photograph_file_size :integer</text>
<text text-anchor="start" x="190" y="-25.4" style="font-family:Times New Roman;font-size:14.00;">photograph_updated_at :datetime</text>
<text text-anchor="start" x="190" y="-8.4" style="font-family:Times New Roman;font-size:14.00;">photograph_primary :integer</text>
</g>
<!-- Family&#45;&gt;FamilyImage -->
<g id="edge16" class="edge"><title>Family&#45;&gt;FamilyImage</title>
<path style="fill:none;stroke:black;" d="M282,-222C285,-208 288,-192 291,-177"/>
<polygon style="fill:black;stroke:black;" points="281.961,-222.194 275.587,-231.117 280.981,-227.097 280,-232 280,-232 280,-232 280.981,-227.097 284.413,-232.883 281.961,-222.194 281.961,-222.194"/>
<ellipse style="fill:black;stroke:black;" cx="291.504" cy="-172.969" rx="4.00001" ry="4.00001"/>
</g>
<!-- Family&#45;&gt;FamilyChild -->
<g id="edge14" class="edge"><title>Family&#45;&gt;FamilyChild</title>
<path style="fill:none;stroke:black;" d="M334,-225C342,-219 351,-212 360,-206 393,-183 406,-187 443,-170 469,-157 497,-144 523,-131"/>
<polygon style="fill:black;stroke:black;" points="333.526,-225.415 323.037,-228.613 329.763,-228.707 326,-232 326,-232 326,-232 329.763,-228.707 328.963,-235.387 333.526,-225.415 333.526,-225.415"/>
<ellipse style="fill:black;stroke:black;" cx="526.527" cy="-128.985" rx="4.00002" ry="4.00002"/>
</g>
<!-- Teacher&#45;&gt;Child -->
<g id="edge22" class="edge"><title>Teacher&#45;&gt;Child</title>
<path style="fill:none;stroke:black;" d="M903,-384C889,-415 872,-451 855,-486"/>
<polygon style="fill:black;stroke:black;" points="902.939,-384.138 911.112,-376.828 904.969,-379.569 907,-375 907,-375 907,-375 904.969,-379.569 902.888,-373.172 902.939,-384.138 902.939,-384.138"/>
<polygon style="fill:black;stroke:black;" points="855.061,-485.862 846.888,-493.172 853.031,-490.431 851,-495 851,-495 851,-495 853.031,-490.431 855.112,-496.828 855.061,-485.862 855.061,-485.862"/>
</g>
<!-- Teacher&#45;&gt;ChildTeacher -->
<g id="edge20" class="edge"><title>Teacher&#45;&gt;ChildTeacher</title>
<path style="fill:none;stroke:black;" d="M966,-196C970,-181 974,-166 978,-152"/>
<polygon style="fill:black;stroke:black;" points="965.961,-196.194 959.587,-205.117 964.981,-201.097 964,-206 964,-206 964,-206 964.981,-201.097 968.413,-206.883 965.961,-196.194 965.961,-196.194"/>
<ellipse style="fill:black;stroke:black;" cx="979.03" cy="-147.881" rx="4.00001" ry="4.00001"/>
</g>
</g>
</svg>
